<svg id="Calque_6" data-name="Calque 6" xmlns="http://www.w3.org/2000/svg" xmlns:xlink="http://www.w3.org/1999/xlink" viewBox="0 0 1920 2210"><defs><style>.cls-1{fill:none;}.cls-2{clip-path:url(#clip-path);}.cls-3{opacity:0.15;}</style><clipPath id="clip-path"><rect class="cls-1" width="1920" height="2210"/></clipPath></defs><title>bg_peignot_2_Plan de travail 1 copie 5</title><g class="cls-2"><g class="cls-3"><path d="M-52.14-1361.77,964.79-774.64,91.57,737.82-925.36,150.69-52.14-1361.77m-14.64-54.64L-980,165.33,106.21,792.46,1019.43-789.28-66.78-1416.41Z"/><path d="M-42-1317.52,920.61-761.73,81.38,691.84-881.27,136.06-42-1317.52m-7.32-27.32L-908.59,143.38,88.7,719.17,947.93-769l-997.3-575.79Z"/><path d="M-34-1281.35,885.26-750.61,73.34,655.67-845.92,124.93-34-1281.35M-37.67-1295-859.58,128.59,77,669.33,898.92-754.27-37.67-1295Z"/><path d="M1033.85-734.77,2050.79-147.64,1177.57,1364.82,160.64,777.69,1033.85-734.77m-14.64-54.64L106,792.33l1086.22,627.13L2105.43-162.28,1019.21-789.41Z"/><path d="M1044-690.52,2006.6-134.73,1167.38,1318.84,204.72,763.06,1044-690.52m-7.32-27.32L177.4,770.38l997.3,575.79L2033.92-142,1036.63-717.84Z"/><path d="M1052-654.35l919.26,530.74L1159.34,1282.67,240.07,751.93,1052-654.35M1048.33-668,226.41,755.59,1163,1296.33l821.91-1423.6L1048.33-668Z"/><path d="M2119.85-107.77,3136.78,479.36,2263.56,1991.82,1246.63,1404.69,2119.85-107.77m-14.64-54.64L1192,1419.33,2278.2,2046.46,3191.42,464.72,2105.21-162.41Z"/><path d="M2129.94-63.52,3092.6,492.27,2253.37,1945.84l-962.65-555.78L2129.94-63.52m-7.32-27.32L1263.4,1397.38l997.29,575.79L3119.92,485,2122.62-90.84Z"/><path d="M2138-27.35l919.27,530.74L2245.33,1909.67l-919.26-530.74L2138-27.35M2134.32-41l-821.91,1423.6L2249,1923.33l821.92-1423.6L2134.32-41Z"/><path d="M-965.14,219.59,51.79,806.72-821.43,2319.18l-1016.93-587.13L-965.14,219.59M-979.78,165-1893,1746.69l1086.21,627.13L106.43,792.08-979.78,165Z"/><path d="M-955,263.84,7.61,819.63-831.62,2273.21l-962.65-555.79L-955,263.84m-7.32-27.32-859.22,1488.22,997.29,575.79L34.93,812.31l-997.3-575.79Z"/><path d="M120.85,846.59l1016.94,587.13L264.57,2946.18-752.36,2359.05,120.85,846.59M106.21,792-807,2373.69,279.21,3000.82l913.22-1581.74L106.21,792Z"/><path d="M131,890.84l962.65,555.79L254.38,2900.21l-962.66-555.79L131,890.84m-7.32-27.32L-735.6,2351.74l997.3,575.79,859.22-1488.22L123.63,863.52Z"/><path d="M139,927l919.26,530.73L246.34,2864-672.93,2333.3,139,927m-3.66-13.66L-686.59,2337,250,2877.69l821.91-1423.6L135.33,913.36Z"/><path d="M1206.85,1473.59l1016.93,587.13L1350.56,3573.18,333.63,2986.05l873.22-1512.46M1192.21,1419,279,3000.69,1365.2,3627.82l913.22-1581.74L1192.21,1419Z"/><path d="M1216.94,1517.84l962.66,555.79L1340.37,3527.21,377.72,2971.42l839.22-1453.58m-7.32-27.32L350.4,2978.74l997.29,575.79,859.23-1488.22-997.3-575.79Z"/><path d="M1225,1554l919.27,530.73L1332.33,3491,413.07,2960.3,1225,1554m-3.66-13.66L399.41,2964,1336,3504.69l821.92-1423.6-936.59-540.73Z"/></g></g></svg>